<svg width="88" height="52" viewBox="0 0 88 52" fill="none" xmlns="http://www.w3.org/2000/svg">
<path d="M43 0.000488281C44.6569 0.000488281 46 1.11978 46 2.50049C46 3.8812 44.6569 5.00049 43 5.00049H3C1.34315 5.00049 0 3.8812 0 2.50049C0 1.11978 1.34315 0.000488281 3 0.000488281H43Z" fill="#FFB627"/>
<path d="M28 15.0005C29.6569 15.0005 31 16.1198 31 17.5005C31 18.8812 29.6569 20.0005 28 20.0005H3C1.34315 20.0005 0 18.8812 0 17.5005C0 16.1198 1.34315 15.0005 3 15.0005H28Z" fill="#FFB627"/>
<path d="M28 30.0005C29.6569 30.0005 31 31.1198 31 32.5005C31 33.8812 29.6569 35.0005 28 35.0005H3C1.34315 35.0005 0 33.8812 0 32.5005C0 31.1198 1.34315 30.0005 3 30.0005H28Z" fill="#FFB627"/>
<path d="M43 46.0005C44.6569 46.0005 46 47.3436 46 49.0005C46 50.6573 44.6569 52.0005 43 52.0005H3C1.34315 52.0005 0 50.6573 0 49.0005C0 47.3436 1.34315 46.0005 3 46.0005H43Z" fill="#FEF3E2"/>
<path d="M63.9982 51.8298C62.436 52.381 60.7225 51.561 60.1711 49.9988L57.2756 41.7947C55.603 37.0558 51.9194 33.2995 47.2141 31.5349L39.9465 28.8093C38.7898 28.3754 38.0171 27.277 38.0002 26.0417C37.9835 24.8062 38.7265 23.6865 39.8713 23.2214L47.6389 20.0652C52.0937 18.2554 55.5738 14.6436 57.217 10.1247L60.1809 1.97531C60.7471 0.418317 62.4685 -0.38483 64.0256 0.18137C65.5826 0.747647 66.3857 2.46905 65.8195 4.0261L62.8557 12.1755C60.6325 18.2893 55.9247 23.1762 49.8977 25.6247L49.2473 25.8894L49.3205 25.9167C55.6868 28.3041 60.6709 33.386 62.9338 39.7976L65.8293 48.0027C66.3804 49.5649 65.5605 51.2784 63.9982 51.8298Z" fill="#FF6B35"/>
<path d="M62.0027 0.171656C63.565 -0.379491 65.2785 0.44045 65.8299 2.00271L68.7254 10.2068C70.3979 14.9457 74.0816 18.702 78.7869 20.4666L86.0545 23.1922C87.2111 23.6261 87.9839 24.7245 88.0008 25.9597C88.0175 27.1953 87.2745 28.315 86.1297 28.7801L78.3621 31.9363C73.9073 33.7461 70.4272 37.3579 68.784 41.8767L65.8201 50.0261C65.2538 51.5831 63.5324 52.3863 61.9754 51.8201C60.4184 51.2538 59.6152 49.5324 60.1814 47.9754L63.1453 39.826C65.3685 33.7122 70.0762 28.8252 76.1033 26.3767L76.7537 26.1121L76.6805 26.0847C70.3142 23.6974 65.3301 18.6154 63.0672 12.2039L60.1717 3.9988C59.6205 2.43652 60.4405 0.723043 62.0027 0.171656Z" fill="#FEF3E2"/>
</svg>
