<svg width="18" height="18" viewBox="338 0 449 465" fill="none" xmlns="http://www.w3.org/2000/svg">
  <!-- Star shape from TermAway logo - black for template image -->
  <path d="M572.273 463.465C558.303 468.393 542.981 461.061 538.051 447.091L512.159 373.73C497.203 331.355 464.264 297.766 422.189 281.987L357.202 257.614C346.859 253.734 339.949 243.912 339.798 232.867C339.648 221.818 346.292 211.806 356.529 207.647L425.987 179.424C465.822 163.241 496.941 130.944 511.635 90.5365L538.138 17.6642C543.202 3.74146 558.595 -3.44031 572.518 1.62267C586.44 6.68634 593.622 22.0792 588.559 36.0023L562.056 108.875C542.176 163.544 500.08 207.243 446.185 229.138L440.37 231.504L441.024 231.749C497.952 253.097 542.52 298.54 562.755 355.872L588.647 429.242C593.575 443.212 586.243 458.534 572.273 463.465Z" fill="#000"/>
  <path d="M554.429 1.53544C568.399 -3.39293 583.721 3.939 588.651 17.9088L614.543 91.2701C629.499 133.645 662.438 167.234 704.514 183.013L769.501 207.386C779.843 211.266 786.753 221.088 786.904 232.133C787.054 243.182 780.41 253.194 770.173 257.353L700.715 285.576C660.88 301.759 629.761 334.056 615.067 374.464L588.564 447.336C583.5 461.259 568.108 468.44 554.184 463.377C540.262 458.314 533.08 442.921 538.143 428.998L564.646 356.125C584.526 301.456 626.622 257.757 680.517 235.862L686.333 233.496L685.678 233.251C628.75 211.903 584.182 166.46 563.947 109.128L538.056 35.7579C533.127 21.7879 540.459 6.46596 554.429 1.53544Z" fill="#000"/>
</svg>
