<svg width="787" height="465" viewBox="0 0 787 465" fill="none" xmlns="http://www.w3.org/2000/svg">
<path d="M384.507 0.00537109C399.323 0.00537109 411.333 10.0141 411.333 22.3604C411.333 34.7068 399.323 44.7155 384.507 44.7155H26.8261C12.0104 44.7155 0 34.7068 0 22.3604C0 10.0141 12.0104 0.00537109 26.8261 0.00537109H384.507Z" fill="#FFB627"/>
<path d="M250.377 134.136C265.192 134.136 277.203 144.145 277.203 156.491C277.203 168.838 265.192 178.846 250.377 178.846H26.8261C12.0104 178.846 0 168.838 0 156.491C0 144.145 12.0104 134.136 26.8261 134.136H250.377Z" fill="#FFB627"/>
<path d="M250.377 268.266C265.192 268.266 277.203 278.275 277.203 290.621C277.203 302.968 265.192 312.976 250.377 312.976H26.8261C12.0104 312.976 0 302.968 0 290.621C0 278.275 12.0104 268.266 26.8261 268.266H250.377Z" fill="#FFB627"/>
<path d="M384.507 411.339C399.323 411.339 411.333 423.349 411.333 438.165C411.333 452.981 399.323 464.991 384.507 464.991H26.8261C12.0104 464.991 0 452.981 0 438.165C0 423.349 12.0104 411.339 26.8261 411.339H384.507Z" fill="#FEF3E2"/>
<path d="M572.273 463.465C558.303 468.393 542.981 461.061 538.051 447.091L512.159 373.73C497.203 331.355 464.264 297.766 422.189 281.987L357.202 257.614C346.859 253.734 339.949 243.912 339.798 232.867C339.648 221.818 346.292 211.806 356.529 207.647L425.987 179.424C465.822 163.241 496.941 130.944 511.635 90.5365L538.138 17.6642C543.202 3.74146 558.595 -3.44031 572.518 1.62267C586.44 6.68634 593.622 22.0792 588.559 36.0023L562.056 108.875C542.176 163.544 500.08 207.243 446.185 229.138L440.37 231.504L441.024 231.749C497.952 253.097 542.52 298.54 562.755 355.872L588.647 429.242C593.575 443.212 586.243 458.534 572.273 463.465Z" fill="#FF6B35"/>
<path d="M554.429 1.53544C568.399 -3.39293 583.721 3.939 588.651 17.9088L614.543 91.2701C629.499 133.645 662.438 167.234 704.514 183.013L769.501 207.386C779.843 211.266 786.753 221.088 786.904 232.133C787.054 243.182 780.41 253.194 770.173 257.353L700.715 285.576C660.88 301.759 629.761 334.056 615.067 374.464L588.564 447.336C583.5 461.259 568.108 468.44 554.184 463.377C540.262 458.314 533.08 442.921 538.143 428.998L564.646 356.125C584.526 301.456 626.622 257.757 680.517 235.862L686.333 233.496L685.678 233.251C628.75 211.903 584.182 166.46 563.947 109.128L538.056 35.7579C533.127 21.7879 540.459 6.46596 554.429 1.53544Z" fill="#FEF3E2"/>
</svg>
