<svg fill="none" height="24" viewBox="0 0 130 24" width="130" xmlns="http://www.w3.org/2000/svg" xmlns:xlink="http://www.w3.org/1999/xlink"><clipPath id="a"><path d="m0 0h130v24h-130z"/></clipPath><mask id="b" height="24" maskUnits="userSpaceOnUse" width="130" x="0" y="0"><path d="m130 0h-130v24h130z" fill="#fff"/></mask><g clip-path="url(#a)"><g mask="url(#b)"><path d="m12 0 2 10 10 2-10 2-2 10-2-10-10-2 10-2z" fill="#fff"/><g fill="#58a6ff"><path d="m21 1 1 3 3 1-3 1-1 3-1-3-3-1 3-1z" opacity=".8"/><path d="m25.1161 5.11612c.4882-.48816 1.2794-.48816 1.7676 0l6 5.99998c.4882.4882.4882 1.2794 0 1.7676l-6 6c-.4882.4882-1.2794.4882-1.7676 0-.4881-.4882-.4881-1.2794 0-1.7676l5.1162-5.1162-5.1162-5.11621c-.4881-.48815-.4881-1.27942 0-1.76757z"/><path d="m123.345 14.9932 3.276-6.64164h2.844l-5.778 10.58394c-.738 1.332-1.512 1.7637-3.132 1.7637h-1.548l.414-2.0156h1.08c.594 0 .901-.1078 1.153-.5938l.323-.5761h-.702l-1.35-9.16214h2.61zm-8.529-6.85746c2.34 0 3.456.97217 3.456 2.82616 0 1.224-.882 4.2473-.882 4.8057 0 .306.162.3779.45.3779h.27l-.378 1.8545c-.198.054-.648.1074-1.008.1074-1.188 0-1.782-.5036-1.782-1.3496v-.1621c-.666.9899-1.782 1.62-3.312 1.6201-1.728 0-2.736-.7743-2.736-2.1963 0-1.9078 1.242-2.9333 3.582-3.4013l2.988-.6123c.054-.342.09-.6482.09-.8282 0-.702-.27-1.08-1.152-1.08-.972 0-1.512.4319-1.836 1.3857l-2.682-.126c.72-2.1777 2.106-3.22163 4.932-3.22166zm-20.7201 9.86426h-2.7724l-.3233-2.7188h-4.788l-1.4766 2.7188h-2.916l7.2002-12.78027h3.2402zm4.542-3.1143 2.9701-6.53414h2.25l.36 6.53414 2.88-6.53414h2.754l-4.68 9.64844h-2.61l-.594-6.0303-2.8437 6.0303h-2.6104l-.8818-9.64844h2.7178zm14.3951-.7382c-.917.18-1.349.5766-1.349 1.3505 0 .5758.306.8633.954.8633 1.152 0 2.088-.5935 2.376-1.9433.036-.198.089-.4503.143-.7383zm-25.5972-1.1163h3.2939l-.6123-4.93159z"/></g><path d="m55.6028 8.13574c2.3759.00002 3.6542 1.16994 3.6543 3.50976 0 .8099-.1267 1.638-.3067 2.25h-6.4619c-.018.1978-.0176.3959-.0176.5938 0 1.17.5222 1.6748 1.4942 1.6748.9176-.0001 1.6371-.3784 1.9072-1.17l2.6826.1612c-.792 1.9259-2.3941 3.0605-5.04 3.0605-2.502 0-3.8164-1.404-3.8164-3.582 0-3.762 2.1243-6.49806 5.9043-6.49806zm-4.0108-.6123h-3.708l-2.2314 10.47656h-2.7363l2.2138-10.47656h-3.708l.4678-2.30371h10.1885zm12.418 2.77246c.684-1.35 1.5298-1.94434 2.7178-1.94434h.8642l-.4687 2.23244h-.8818c-1.5119 0-2.322.5581-2.628 1.998l-1.1513 5.418h-2.7002l2.0341-9.64844h2.5733zm15.1641-2.16016c1.656 0 2.5381 1.00838 2.5381 2.48436-.0001.648-.1793 1.6197-.3233 2.2676l-1.0986 5.1123h-2.7002l1.1348-5.292c.108-.45.1972-.9183.1972-1.4043 0-.6839-.3956-1.0263-1.0254-1.0264-.9 0-1.6022.8467-1.9082 2.3047l-1.1699 5.418h-2.4482l1.1523-5.418c.09-.414.1621-.9367.1621-1.2607-.0001-.6477-.3427-1.044-1.0625-1.044-.8999.0001-1.5661.8468-1.8721 2.3047l-1.1513 5.418h-2.7002l2.0517-9.64844h2.4297l-.2695 1.54785c.684-1.13378 1.6199-1.76364 2.7178-1.76367 1.458 0 2.2145.70247 2.3945 1.98046.6839-1.29586 1.6913-1.98033 2.9512-1.98046zm-23.8955 1.99806c-1.1878.0001-2.0514.7919-2.4834 2.1055h3.7431c.036-.18.0723-.4318.0723-.7735 0-.882-.504-1.332-1.332-1.332z" fill="#fff"/></g></g></svg>