<svg fill="none" height="512" viewBox="0 0 512 512" width="512" xmlns="http://www.w3.org/2000/svg">
  <!-- Dark background for app icon -->
  <rect width="512" height="512" rx="108" fill="#0a0a0f"/>
  <!-- Star -->
  <path d="m200 70 24 98c2 8 8 14 16 16l98 24-118 28-20 98-20-98c-2-8-8-14-16-16l-98-24 98-24c8-2 14-8 16-16z" fill="#fff"/>
  <!-- Small sparkle -->
  <path d="m300 80 10 32c1 4 4 7 8 8l32 10-32 10c-4 1-7 4-8 8l-10 32-10-32c-1-4-4-7-8-8l-32-10 32-10c4-1 7-4 8-8z" fill="#58a6ff" opacity=".8"/>
  <!-- Chevron > -->
  <path d="m157.506 300.005c5.52-6.901 15.589-8.019 22.489-2.499l100 80c3.796 3.036 6.005 7.633 6.005 12.494 0 4.86-2.209 9.457-6.005 12.494l-100 80c-6.9 5.52-16.969 4.401-22.489-2.499s-4.401-16.969 2.499-22.489l84.382-67.506-84.382-67.506c-6.9-5.52-8.019-15.589-2.499-22.489z" fill="#58a6ff"/>
</svg>
